<?xml version="1.0" encoding="UTF-8" standalone="no"?>
<!DOCTYPE svg PUBLIC "-//W3C//DTD SVG 1.1//EN" "http://www.w3.org/Graphics/SVG/1.1/DTD/svg11.dtd">
<svg width="100%" height="100%" viewBox="0 0 14 14" version="1.1" xmlns="http://www.w3.org/2000/svg" xmlns:xlink="http://www.w3.org/1999/xlink" xml:space="preserve" xmlns:serif="http://www.serif.com/" style="fill-rule:evenodd;clip-rule:evenodd;stroke-linejoin:round;stroke-miterlimit:2;">
    <path d="M11.62,3.85L7.33,1.87L1.48,3.58L4.12,7.54L3.46,12.07L10.27,12.07L12.25,8.08L11.62,3.85ZM9.73,11.2L4.51,11.2L5.05,7.33L2.92,4.12L7.27,2.83L10.78,4.45L11.32,7.96L9.73,11.2Z" style="fill:rgb(207,216,220);fill-rule:nonzero;"/>
    <g transform="matrix(0.3,0,0,0.3,0.1,-0.05)">
        <circle cx="24" cy="8" r="4" style="fill:rgb(0,188,212);"/>
        <circle cx="37" cy="14" r="4" style="fill:rgb(0,188,212);"/>
        <circle cx="39" cy="27" r="4" style="fill:rgb(0,188,212);"/>
        <circle cx="7" cy="13" r="4" style="fill:rgb(0,188,212);"/>
        <circle cx="13" cy="39" r="4" style="fill:rgb(0,188,212);"/>
        <circle cx="15" cy="25" r="4" style="fill:rgb(0,188,212);"/>
        <circle cx="33" cy="39" r="4" style="fill:rgb(0,188,212);"/>
    </g>
</svg>
