<?xml version="1.0" encoding="UTF-8" standalone="no"?>
<!DOCTYPE svg PUBLIC "-//W3C//DTD SVG 1.1//EN" "http://www.w3.org/Graphics/SVG/1.1/DTD/svg11.dtd">
<svg width="100%" height="100%" viewBox="0 0 96 32" version="1.1" xmlns="http://www.w3.org/2000/svg" xmlns:xlink="http://www.w3.org/1999/xlink" xml:space="preserve" xmlns:serif="http://www.serif.com/" style="fill-rule:evenodd;clip-rule:evenodd;stroke-linejoin:round;stroke-miterlimit:2;">
    <g>
        <g transform="matrix(2.51685,0,0,2.51685,-1.51685,-1.74438)">
            <path d="M11.62,3.85L7.33,1.87L1.48,3.58L4.12,7.54L3.46,12.07L10.27,12.07L12.25,8.08L11.62,3.85ZM9.73,11.2L4.51,11.2L5.05,7.33L2.92,4.12L7.27,2.83L10.78,4.45L11.32,7.96L9.73,11.2Z" style="fill:rgb(207,216,220);fill-rule:nonzero;"/>
        </g>
        <g transform="matrix(0.755055,0,0,0.755055,-1.26517,-1.87022)">
            <circle cx="24" cy="8" r="4" style="fill:rgb(0,188,212);"/>
            <circle cx="37" cy="14" r="4" style="fill:rgb(0,188,212);"/>
            <circle cx="39" cy="27" r="4" style="fill:rgb(0,188,212);"/>
            <circle cx="7" cy="13" r="4" style="fill:rgb(0,188,212);"/>
            <circle cx="13" cy="39" r="4" style="fill:rgb(0,188,212);"/>
            <circle cx="15" cy="25" r="4" style="fill:rgb(0,188,212);"/>
            <circle cx="33" cy="39" r="4" style="fill:rgb(0,188,212);"/>
        </g>
        <g transform="matrix(2.21659,0,0,2.21659,-49.6336,-12.516)">
            <path d="M37.757,8.905L40.421,8.905L40.421,14.809L42.629,14.809L42.629,16.909L37.757,16.909L37.757,8.905ZM41.957,15.949L41.957,15.661L39.269,15.661L39.269,9.865L38.957,9.865L38.957,15.949L41.957,15.949Z" style="fill:white;fill-rule:nonzero;"/>
            <path d="M45.845,8.905L47.765,8.905L50.801,16.909L48.281,16.909L48.017,16.189L45.593,16.189L45.329,16.909L42.809,16.909L45.845,8.905ZM47.345,14.425L46.805,13.021L46.265,14.425L47.345,14.425ZM44.597,15.949L44.825,15.349L48.785,15.349L49.013,15.949L49.349,15.949L47.033,9.865L46.577,9.865L44.261,15.949L44.597,15.949ZM46.805,10.153L48.677,15.061L44.933,15.061L46.805,10.153Z" style="fill:white;fill-rule:nonzero;"/>
            <path d="M50.981,8.905L53.081,8.905L55.289,11.989L55.289,8.905L57.797,8.905L57.797,16.909L55.685,16.909L53.489,13.837L53.489,16.909L50.981,16.909L50.981,8.905ZM52.409,15.949L52.409,10.405L56.369,15.949L56.681,15.949L56.681,9.865L56.369,9.865L56.369,15.409L52.409,9.865L52.097,9.865L52.097,15.949L52.409,15.949Z" style="fill:white;fill-rule:nonzero;"/>
            <path d="M58.637,16.909L58.637,8.905L60.857,8.905C61.609,8.905 62.279,8.989 62.867,9.157C63.455,9.325 63.951,9.577 64.355,9.913C64.759,10.249 65.067,10.667 65.279,11.167C65.491,11.667 65.597,12.245 65.597,12.901C65.597,13.557 65.491,14.135 65.279,14.635C65.067,15.135 64.759,15.553 64.355,15.889C63.951,16.225 63.455,16.479 62.867,16.651C62.279,16.823 61.609,16.909 60.857,16.909L58.637,16.909ZM60.149,15.661L60.149,10.153L60.857,10.153C61.873,10.153 62.663,10.383 63.227,10.843C63.791,11.303 64.073,11.989 64.073,12.901C64.073,13.813 63.791,14.501 63.227,14.965C62.663,15.429 61.873,15.661 60.857,15.661L60.149,15.661ZM59.837,15.949L60.857,15.949C62.025,15.949 62.907,15.683 63.503,15.151C64.099,14.619 64.397,13.869 64.397,12.901C64.397,11.933 64.099,11.185 63.503,10.657C62.907,10.129 62.025,9.865 60.857,9.865L59.837,9.865L59.837,15.949ZM61.193,14.629C61.793,14.629 62.257,14.487 62.585,14.203C62.913,13.919 63.077,13.485 63.077,12.901C63.077,12.317 62.913,11.885 62.585,11.605C62.257,11.325 61.793,11.185 61.193,11.185L61.193,14.629Z" style="fill:white;fill-rule:nonzero;"/>
        </g>
    </g>
</svg>
